M48
; DRILL file {KiCad 9.0.0} date 2026-06-23T01:52:46-0300
; FORMAT={-:-/ absolute / metric / decimal}
; #@! TF.CreationDate,2026-06-23T01:52:46-03:00
; #@! TF.GenerationSoftware,Kicad,Pcbnew,9.0.0
; #@! TF.FileFunction,Plated,1,2,PTH
FMAT,2
METRIC
; #@! TA.AperFunction,Plated,PTH,ViaDrill
T1C0.800
; #@! TA.AperFunction,Plated,PTH,ComponentDrill
T2C0.800
; #@! TA.AperFunction,Plated,PTH,ComponentDrill
T3C0.900
; #@! TA.AperFunction,Plated,PTH,ComponentDrill
T4C1.000
; #@! TA.AperFunction,Plated,PTH,ComponentDrill
T5C1.900
%
G90
G05
T1
X90.51Y-74.04
X110.57Y-77.7
X123.45Y-95.38
X128.85Y-94.12
X130.38Y-88.49
X130.61Y-91.36
X142.19Y-82.44
X142.74Y-73.91
X145.48Y-100.429
X146.09Y-96.6
X146.37Y-92.15
X149.56Y-81.7
X154.52Y-71.75
X161.21Y-86.08
X161.33Y-83.19
T2
X94.15Y-94.54
X94.15Y-97.04
X132.76Y-78.25
X132.76Y-80.79
X132.76Y-83.33
X137.93Y-77.23
X137.93Y-84.85
X140.47Y-77.23
X140.47Y-84.85
X143.01Y-77.23
X143.01Y-84.85
X145.55Y-77.23
X145.55Y-84.85
X148.09Y-77.23
X148.09Y-84.85
X149.08Y-96.57
X149.12Y-88.97
X149.12Y-92.79
X150.63Y-77.23
X150.63Y-84.85
X153.17Y-77.23
X153.17Y-84.85
X154.16Y-96.57
X154.2Y-88.97
X154.2Y-92.79
X165.51Y-83.14
X165.51Y-86.14
X167.26Y-70.8
X167.69Y-74.67
X167.93Y-78.58
X172.34Y-70.8
X172.77Y-74.67
X173.01Y-78.58
X179.72Y-81.62
X179.82Y-89.69
X179.84Y-85.72
X184.8Y-81.62
X184.9Y-89.69
X184.92Y-85.72
T3
X113.282Y-96.146
X115.06Y-97.67
X116.584Y-96.146
X118.108Y-97.67
X159.422Y-75.338
X160.212Y-92.754
X160.77Y-94.836
X160.946Y-77.978
X161.504Y-75.896
X161.863Y-89.894
X162.294Y-92.196
X163.155Y-78.756
X173.846Y-82.216
X173.846Y-85.264
X175.37Y-83.74
X175.37Y-87.042
T4
X77.46Y-109.435
X78.912Y-70.94
X78.912Y-88.72
X81.453Y-70.94
X81.453Y-88.72
X83.992Y-70.94
X83.992Y-88.72
X86.532Y-70.94
X86.532Y-88.72
X88.46Y-109.435
X89.072Y-70.94
X89.072Y-88.72
X91.612Y-70.94
X91.612Y-88.72
X94.152Y-70.94
X94.152Y-88.72
X96.692Y-70.94
X96.692Y-88.72
X99.233Y-70.94
X99.233Y-88.72
X101.772Y-70.94
X101.772Y-88.72
X104.21Y-97.18
X104.312Y-70.94
X104.312Y-88.72
X106.75Y-97.18
X106.852Y-70.94
X106.852Y-88.72
X109.29Y-97.18
X109.392Y-70.94
X109.392Y-88.72
X111.932Y-70.94
X111.932Y-88.72
X114.472Y-70.94
X114.472Y-88.72
X117.012Y-70.94
X117.012Y-88.72
X119.552Y-70.94
X119.552Y-88.72
X122.093Y-70.94
X122.093Y-88.72
X124.632Y-70.94
X124.632Y-88.72
X127.172Y-70.94
X127.172Y-88.72
T5
X80.46Y-99.435
X85.46Y-99.435
M30
