G04 #@! TF.GenerationSoftware,KiCad,Pcbnew,9.0.0*
G04 #@! TF.CreationDate,2026-06-23T01:52:46-03:00*
G04 #@! TF.ProjectId,PlacaSensor,506c6163-6153-4656-9e73-6f722e6b6963,rev?*
G04 #@! TF.SameCoordinates,Original*
G04 #@! TF.FileFunction,Copper,L1,Top*
G04 #@! TF.FilePolarity,Positive*
%FSLAX46Y46*%
G04 Gerber Fmt 4.6, Leading zero omitted, Abs format (unit mm)*
G04 Created by KiCad (PCBNEW 9.0.0) date 2026-06-23 01:52:46*
%MOMM*%
%LPD*%
G01*
G04 APERTURE LIST*
G04 Aperture macros list*
%AMRoundRect*
0 Rectangle with rounded corners*
0 $1 Rounding radius*
0 $2 $3 $4 $5 $6 $7 $8 $9 X,Y pos of 4 corners*
0 Add a 4 corners polygon primitive as box body*
4,1,4,$2,$3,$4,$5,$6,$7,$8,$9,$2,$3,0*
0 Add four circle primitives for the rounded corners*
1,1,$1+$1,$2,$3*
1,1,$1+$1,$4,$5*
1,1,$1+$1,$6,$7*
1,1,$1+$1,$8,$9*
0 Add four rect primitives between the rounded corners*
20,1,$1+$1,$2,$3,$4,$5,0*
20,1,$1+$1,$4,$5,$6,$7,0*
20,1,$1+$1,$6,$7,$8,$9,0*
20,1,$1+$1,$8,$9,$2,$3,0*%
%AMFreePoly0*
4,1,37,0.603843,0.796157,0.639018,0.796157,0.711114,0.766294,0.766294,0.711114,0.796157,0.639018,0.796157,0.603843,0.800000,0.600000,0.800000,-0.600000,0.796157,-0.603843,0.796157,-0.639018,0.766294,-0.711114,0.711114,-0.766294,0.639018,-0.796157,0.603843,-0.796157,0.600000,-0.800000,0.000000,-0.800000,0.000000,-0.796148,-0.078414,-0.796148,-0.232228,-0.765552,-0.377117,-0.705537,
-0.507515,-0.618408,-0.618408,-0.507515,-0.705537,-0.377117,-0.765552,-0.232228,-0.796148,-0.078414,-0.796148,0.078414,-0.765552,0.232228,-0.705537,0.377117,-0.618408,0.507515,-0.507515,0.618408,-0.377117,0.705537,-0.232228,0.765552,-0.078414,0.796148,0.000000,0.796148,0.000000,0.800000,0.600000,0.800000,0.603843,0.796157,0.603843,0.796157,$1*%
%AMFreePoly1*
4,1,37,0.000000,0.796148,0.078414,0.796148,0.232228,0.765552,0.377117,0.705537,0.507515,0.618408,0.618408,0.507515,0.705537,0.377117,0.765552,0.232228,0.796148,0.078414,0.796148,-0.078414,0.765552,-0.232228,0.705537,-0.377117,0.618408,-0.507515,0.507515,-0.618408,0.377117,-0.705537,0.232228,-0.765552,0.078414,-0.796148,0.000000,-0.796148,0.000000,-0.800000,-0.600000,-0.800000,
-0.603843,-0.796157,-0.639018,-0.796157,-0.711114,-0.766294,-0.766294,-0.711114,-0.796157,-0.639018,-0.796157,-0.603843,-0.800000,-0.600000,-0.800000,0.600000,-0.796157,0.603843,-0.796157,0.639018,-0.766294,0.711114,-0.711114,0.766294,-0.639018,0.796157,-0.603843,0.796157,-0.600000,0.800000,0.000000,0.800000,0.000000,0.796148,0.000000,0.796148,$1*%
G04 Aperture macros list end*
%ADD10C,0.150000*%
G04 #@! TA.AperFunction,ComponentPad*
%ADD11C,1.600000*%
G04 #@! TD*
G04 #@! TA.AperFunction,ComponentPad*
%ADD12O,1.600000X1.600000*%
G04 #@! TD*
G04 #@! TA.AperFunction,SMDPad,CuDef*
%ADD13C,2.000000*%
G04 #@! TD*
G04 #@! TA.AperFunction,SMDPad,CuDef*
%ADD14RoundRect,0.250000X-0.350000X-0.450000X0.350000X-0.450000X0.350000X0.450000X-0.350000X0.450000X0*%
G04 #@! TD*
G04 #@! TA.AperFunction,ComponentPad*
%ADD15RoundRect,0.250000X-0.550000X0.950000X-0.550000X-0.950000X0.550000X-0.950000X0.550000X0.950000X0*%
G04 #@! TD*
G04 #@! TA.AperFunction,ComponentPad*
%ADD16O,1.600000X2.400000*%
G04 #@! TD*
G04 #@! TA.AperFunction,ComponentPad*
%ADD17RoundRect,0.200000X0.600000X-0.600000X0.600000X0.600000X-0.600000X0.600000X-0.600000X-0.600000X0*%
G04 #@! TD*
G04 #@! TA.AperFunction,ComponentPad*
%ADD18FreePoly0,90.000000*%
G04 #@! TD*
G04 #@! TA.AperFunction,ComponentPad*
%ADD19FreePoly1,90.000000*%
G04 #@! TD*
G04 #@! TA.AperFunction,SMDPad,CuDef*
%ADD20RoundRect,0.250000X-0.262500X-0.450000X0.262500X-0.450000X0.262500X0.450000X-0.262500X0.450000X0*%
G04 #@! TD*
G04 #@! TA.AperFunction,SMDPad,CuDef*
%ADD21RoundRect,0.250000X-0.450000X0.325000X-0.450000X-0.325000X0.450000X-0.325000X0.450000X0.325000X0*%
G04 #@! TD*
G04 #@! TA.AperFunction,ComponentPad*
%ADD22C,1.440000*%
G04 #@! TD*
G04 #@! TA.AperFunction,ComponentPad*
%ADD23C,2.000000*%
G04 #@! TD*
G04 #@! TA.AperFunction,SMDPad,CuDef*
%ADD24RoundRect,0.250000X0.262500X0.450000X-0.262500X0.450000X-0.262500X-0.450000X0.262500X-0.450000X0*%
G04 #@! TD*
G04 #@! TA.AperFunction,ComponentPad*
%ADD25R,1.700000X1.700000*%
G04 #@! TD*
G04 #@! TA.AperFunction,ComponentPad*
%ADD26O,1.700000X1.700000*%
G04 #@! TD*
G04 #@! TA.AperFunction,SMDPad,CuDef*
%ADD27RoundRect,0.250000X-0.450000X0.350000X-0.450000X-0.350000X0.450000X-0.350000X0.450000X0.350000X0*%
G04 #@! TD*
G04 #@! TA.AperFunction,SMDPad,CuDef*
%ADD28RoundRect,0.200000X-0.750000X-0.200000X0.750000X-0.200000X0.750000X0.200000X-0.750000X0.200000X0*%
G04 #@! TD*
G04 #@! TA.AperFunction,ComponentPad*
%ADD29RoundRect,0.450000X-0.450000X-0.450000X0.450000X-0.450000X0.450000X0.450000X-0.450000X0.450000X0*%
G04 #@! TD*
G04 #@! TA.AperFunction,ComponentPad*
%ADD30C,1.800000*%
G04 #@! TD*
G04 #@! TA.AperFunction,ComponentPad*
%ADD31RoundRect,0.450000X0.450000X-0.450000X0.450000X0.450000X-0.450000X0.450000X-0.450000X-0.450000X0*%
G04 #@! TD*
G04 #@! TA.AperFunction,ComponentPad*
%ADD32C,1.400000*%
G04 #@! TD*
G04 #@! TA.AperFunction,ComponentPad*
%ADD33RoundRect,0.770000X-0.980000X-0.980000X0.980000X-0.980000X0.980000X0.980000X-0.980000X0.980000X0*%
G04 #@! TD*
G04 #@! TA.AperFunction,ComponentPad*
%ADD34C,3.500000*%
G04 #@! TD*
G04 #@! TA.AperFunction,ComponentPad*
%ADD35RoundRect,0.450000X-0.164711X0.614711X-0.614711X-0.164711X0.164711X-0.614711X0.614711X0.164711X0*%
G04 #@! TD*
G04 #@! TA.AperFunction,ComponentPad*
%ADD36RoundRect,0.450000X0.614711X-0.164711X0.164711X0.614711X-0.614711X0.164711X-0.164711X-0.614711X0*%
G04 #@! TD*
G04 #@! TA.AperFunction,ViaPad*
%ADD37C,1.600000*%
G04 #@! TD*
G04 #@! TA.AperFunction,Conductor*
%ADD38C,0.600000*%
G04 #@! TD*
G04 #@! TA.AperFunction,Conductor*
%ADD39C,0.700000*%
G04 #@! TD*
G04 #@! TA.AperFunction,Conductor*
%ADD40C,0.800000*%
G04 #@! TD*
G04 #@! TA.AperFunction,Conductor*
%ADD41C,1.000000*%
G04 #@! TD*
G04 APERTURE END LIST*
D10*
G36*
X101828198Y-99504456D02*
G01*
X101880768Y-99522528D01*
X101925785Y-99551968D01*
X101964490Y-99593779D01*
X102002415Y-99660794D01*
X102026266Y-99741319D01*
X102034759Y-99838608D01*
X102034759Y-100091045D01*
X102026278Y-100189641D01*
X102002533Y-100270774D01*
X101964918Y-100337840D01*
X101926456Y-100379648D01*
X101881753Y-100409055D01*
X101829581Y-100427093D01*
X101767960Y-100433413D01*
X101704274Y-100427027D01*
X101650768Y-100408878D01*
X101605334Y-100379450D01*
X101566643Y-100337840D01*
X101528785Y-100270744D01*
X101504901Y-100189612D01*
X101496374Y-100091045D01*
X101496374Y-99838608D01*
X101504792Y-99740620D01*
X101528363Y-99659961D01*
X101565703Y-99593266D01*
X101603925Y-99551893D01*
X101649025Y-99522596D01*
X101702359Y-99504499D01*
X101766079Y-99498121D01*
X101828198Y-99504456D01*
G37*
G36*
X109186924Y-99505587D02*
G01*
X109226223Y-99527361D01*
X109259523Y-99565056D01*
X109282143Y-99611847D01*
X109297339Y-99675034D01*
X109303035Y-99759192D01*
X109303035Y-100170461D01*
X109297400Y-100256663D01*
X109282473Y-100320509D01*
X109260464Y-100366991D01*
X109227765Y-100404339D01*
X109188798Y-100425971D01*
X109141383Y-100433413D01*
X109092726Y-100425906D01*
X109053176Y-100404211D01*
X109020422Y-100366991D01*
X108998412Y-100320509D01*
X108983485Y-100256663D01*
X108977850Y-100170461D01*
X108977850Y-99759192D01*
X108983373Y-99674918D01*
X108998083Y-99611734D01*
X109019909Y-99565056D01*
X109052419Y-99527465D01*
X109091528Y-99505649D01*
X109139502Y-99498121D01*
X109186924Y-99505587D01*
G37*
G36*
X99278330Y-99524613D02*
G01*
X99327215Y-99542314D01*
X99365661Y-99570356D01*
X99394740Y-99608006D01*
X99412497Y-99653027D01*
X99418747Y-99707560D01*
X99412510Y-99760668D01*
X99395120Y-99802345D01*
X99367028Y-99835274D01*
X99330069Y-99858811D01*
X99281468Y-99874096D01*
X99217857Y-99879726D01*
X99054324Y-99879726D01*
X99054324Y-99518210D01*
X99215976Y-99518210D01*
X99278330Y-99524613D01*
G37*
G36*
X110465262Y-101241219D02*
G01*
X96223344Y-101241219D01*
X96223344Y-100220128D01*
X96378900Y-100220128D01*
X96384464Y-100315836D01*
X96403900Y-100396344D01*
X96435882Y-100464392D01*
X96480263Y-100522080D01*
X96538073Y-100570702D01*
X96622111Y-100618282D01*
X96715739Y-100652996D01*
X96820518Y-100674578D01*
X96938314Y-100682088D01*
X97057760Y-100674761D01*
X97120582Y-100662000D01*
X97638265Y-100662000D01*
X98549621Y-100662000D01*
X98549621Y-100413324D01*
X97961484Y-100413324D01*
X97961484Y-100066169D01*
X98452083Y-100066169D01*
X98452083Y-99817493D01*
X97961484Y-99817493D01*
X97961484Y-99518210D01*
X98550647Y-99518210D01*
X98731106Y-99518210D01*
X98731106Y-99879726D01*
X98731106Y-100662000D01*
X99054324Y-100662000D01*
X99054324Y-100128317D01*
X99227431Y-100128317D01*
X99292994Y-100134893D01*
X99343120Y-100152864D01*
X99381390Y-100180975D01*
X99409586Y-100219206D01*
X99427516Y-100268747D01*
X99434049Y-100332968D01*
X99434049Y-100417170D01*
X99436813Y-100484097D01*
X99445504Y-100557793D01*
X99457289Y-100605811D01*
X99474148Y-100639378D01*
X99495256Y-100662000D01*
X99828989Y-100662000D01*
X99828989Y-100642851D01*
X99796146Y-100605498D01*
X99772569Y-100543432D01*
X99760099Y-100475172D01*
X99756327Y-100419051D01*
X99756327Y-100331087D01*
X99749595Y-100248531D01*
X99730594Y-100179029D01*
X99700334Y-100120196D01*
X99657275Y-100071082D01*
X99597268Y-100030651D01*
X99516285Y-99999234D01*
X99586783Y-99961881D01*
X99641961Y-99919765D01*
X99684092Y-99872973D01*
X99715317Y-99818869D01*
X99734401Y-99757626D01*
X99741025Y-99687471D01*
X99731686Y-99593167D01*
X99704945Y-99512412D01*
X99661321Y-99442431D01*
X99599462Y-99381434D01*
X99526517Y-99334572D01*
X99440067Y-99299678D01*
X99337581Y-99277452D01*
X99215976Y-99269534D01*
X99851130Y-99269534D01*
X100300610Y-100662000D01*
X100649731Y-100662000D01*
X100916020Y-99840489D01*
X101174096Y-99840489D01*
X101174096Y-100091045D01*
X101181092Y-100193306D01*
X101201338Y-100285465D01*
X101234206Y-100369058D01*
X101279721Y-100445339D01*
X101338569Y-100515222D01*
X101407450Y-100574623D01*
X101483618Y-100620736D01*
X101568099Y-100654187D01*
X101662303Y-100674898D01*
X101767960Y-100682088D01*
X101872815Y-100674904D01*
X101966287Y-100654208D01*
X102050105Y-100620772D01*
X102125676Y-100574660D01*
X102194017Y-100515222D01*
X102252326Y-100445410D01*
X102297461Y-100369165D01*
X102330075Y-100285570D01*
X102350176Y-100193372D01*
X102356798Y-100095832D01*
X103044764Y-100095832D01*
X103044764Y-100122589D01*
X103054495Y-100310328D01*
X103082292Y-100476342D01*
X103126529Y-100623370D01*
X103186242Y-100753810D01*
X103266246Y-100879715D01*
X103348200Y-100973698D01*
X103432212Y-101041043D01*
X103519120Y-101085663D01*
X103524848Y-101085663D01*
X103583148Y-100933585D01*
X103528154Y-100885424D01*
X103476111Y-100822671D01*
X103450774Y-100781508D01*
X105777292Y-100781508D01*
X106103417Y-100781508D01*
X107770118Y-100781508D01*
X108096243Y-100781508D01*
X108410707Y-99781162D01*
X108655572Y-99781162D01*
X108655572Y-100150372D01*
X108657074Y-100170461D01*
X108664878Y-100274864D01*
X108691034Y-100379264D01*
X108732351Y-100467080D01*
X108788501Y-100541038D01*
X108859321Y-100602005D01*
X108940283Y-100645654D01*
X109033377Y-100672644D01*
X109141383Y-100682088D01*
X109248377Y-100672674D01*
X109340860Y-100645734D01*
X109421550Y-100602093D01*
X109492384Y-100541038D01*
X109548534Y-100467080D01*
X109589851Y-100379264D01*
X109616007Y-100274864D01*
X109625314Y-100150372D01*
X109625314Y-99781162D01*
X109615974Y-99657307D01*
X109589687Y-99553161D01*
X109548087Y-99465282D01*
X109491444Y-99391009D01*
X109420127Y-99329679D01*
X109339100Y-99285882D01*
X109335512Y-99284836D01*
X109749267Y-99284836D01*
X109803372Y-99332890D01*
X109854951Y-99395654D01*
X109903975Y-99475567D01*
X109950071Y-99575571D01*
X109982989Y-99674872D01*
X110008249Y-99792503D01*
X110024586Y-99931200D01*
X110030427Y-100093952D01*
X110030427Y-100124555D01*
X110024583Y-100287283D01*
X110008240Y-100425874D01*
X109982979Y-100543337D01*
X109950071Y-100642423D01*
X109904036Y-100742142D01*
X109855034Y-100822084D01*
X109803434Y-100885107D01*
X109749267Y-100933585D01*
X109807653Y-101085663D01*
X109813381Y-101085663D01*
X109884782Y-101051890D01*
X109954659Y-101003339D01*
X110023599Y-100938083D01*
X110091885Y-100853553D01*
X110159509Y-100746630D01*
X110223797Y-100611374D01*
X110270671Y-100463539D01*
X110299681Y-100301310D01*
X110309706Y-100122589D01*
X110309706Y-100095832D01*
X110299696Y-99917633D01*
X110270709Y-99755640D01*
X110223838Y-99607792D01*
X110159509Y-99472305D01*
X110091863Y-99365151D01*
X110023564Y-99280471D01*
X109954625Y-99215127D01*
X109884760Y-99166537D01*
X109813381Y-99132758D01*
X109807653Y-99132758D01*
X109749267Y-99284836D01*
X109335512Y-99284836D01*
X109246453Y-99258874D01*
X109139502Y-99249445D01*
X109031483Y-99258904D01*
X108938567Y-99285912D01*
X108857931Y-99329559D01*
X108787561Y-99390496D01*
X108731844Y-99464393D01*
X108690812Y-99552187D01*
X108664822Y-99656608D01*
X108657204Y-99759192D01*
X108655572Y-99781162D01*
X108410707Y-99781162D01*
X108571540Y-99269534D01*
X108245415Y-99269534D01*
X107770118Y-100781508D01*
X106103417Y-100781508D01*
X106279890Y-100220128D01*
X106649410Y-100220128D01*
X106654974Y-100315836D01*
X106674409Y-100396344D01*
X106706392Y-100464392D01*
X106750773Y-100522080D01*
X106808583Y-100570702D01*
X106892620Y-100618282D01*
X106986249Y-100652996D01*
X107091027Y-100674578D01*
X107208824Y-100682088D01*
X107328269Y-100674761D01*
X107429767Y-100654144D01*
X107516071Y-100621747D01*
X107589488Y-100578310D01*
X107652626Y-100520991D01*
X107696720Y-100455271D01*
X107723576Y-100379494D01*
X107732932Y-100290909D01*
X107724635Y-100203147D01*
X107700959Y-100128281D01*
X107662569Y-100063760D01*
X107608551Y-100007868D01*
X107520929Y-99947264D01*
X107401316Y-99888552D01*
X107242334Y-99832795D01*
X107112112Y-99777082D01*
X107047684Y-99740557D01*
X107018339Y-99712798D01*
X107001347Y-99680646D01*
X106995539Y-99642505D01*
X107001148Y-99602755D01*
X107017705Y-99567855D01*
X107046231Y-99536419D01*
X107082345Y-99513329D01*
X107127754Y-99498644D01*
X107184973Y-99493334D01*
X107255847Y-99499121D01*
X107308258Y-99514558D01*
X107346540Y-99537786D01*
X107375001Y-99571181D01*
X107393327Y-99617403D01*
X107400139Y-99680803D01*
X107713784Y-99680803D01*
X107715750Y-99674990D01*
X107708181Y-99576262D01*
X107682024Y-99492998D01*
X107638124Y-99421919D01*
X107575127Y-99360918D01*
X107500330Y-99313987D01*
X107413061Y-99279233D01*
X107311075Y-99257236D01*
X107191641Y-99249445D01*
X107078875Y-99256856D01*
X106980685Y-99277967D01*
X106894868Y-99311639D01*
X106819610Y-99357498D01*
X106754399Y-99417066D01*
X106709474Y-99483032D01*
X106682525Y-99556769D01*
X106673260Y-99640625D01*
X106681739Y-99727856D01*
X106705762Y-99800833D01*
X106744525Y-99862453D01*
X106799009Y-99914604D01*
X106887045Y-99971006D01*
X107012237Y-100030892D01*
X107183948Y-100093952D01*
X107300862Y-100141746D01*
X107360901Y-100178582D01*
X107387526Y-100208138D01*
X107403873Y-100245431D01*
X107409713Y-100292875D01*
X107404071Y-100333822D01*
X107387706Y-100368328D01*
X107359961Y-100398022D01*
X107324453Y-100418944D01*
X107275461Y-100432935D01*
X107208824Y-100438200D01*
X107127947Y-100431519D01*
X107068629Y-100413752D01*
X107025715Y-100387080D01*
X106994426Y-100348608D01*
X106973779Y-100293086D01*
X106965961Y-100214400D01*
X106651290Y-100214400D01*
X106649410Y-100220128D01*
X106279890Y-100220128D01*
X106578714Y-99269534D01*
X106252588Y-99269534D01*
X105777292Y-100781508D01*
X103450774Y-100781508D01*
X103427038Y-100742947D01*
X103381318Y-100643364D01*
X103348863Y-100544347D01*
X103323919Y-100426774D01*
X103307768Y-100287857D01*
X103301988Y-100124555D01*
X103301988Y-100093952D01*
X103307758Y-99931153D01*
X103314635Y-99872033D01*
X103667779Y-99872033D01*
X103667779Y-100148406D01*
X103994930Y-100148406D01*
X103994930Y-100522403D01*
X104296179Y-100522403D01*
X104296179Y-100300483D01*
X104759080Y-100300483D01*
X104765854Y-100382859D01*
X104791045Y-100454933D01*
X104834929Y-100519281D01*
X104900130Y-100577369D01*
X104975824Y-100622695D01*
X105057886Y-100655261D01*
X105147453Y-100675222D01*
X105245917Y-100682088D01*
X105371544Y-100672352D01*
X105471443Y-100645588D01*
X105550704Y-100604197D01*
X105613161Y-100548732D01*
X105663480Y-100478990D01*
X105699699Y-100400972D01*
X105722067Y-100313132D01*
X105729848Y-100213460D01*
X105722304Y-100099721D01*
X105701319Y-100005887D01*
X105668671Y-99928550D01*
X105625129Y-99864937D01*
X105568690Y-99812486D01*
X105501687Y-99775163D01*
X105421906Y-99752512D01*
X105326188Y-99745771D01*
X105256157Y-99751697D01*
X105193771Y-99764920D01*
X105136686Y-99785548D01*
X105093839Y-99809885D01*
X105129230Y-99520091D01*
X105682916Y-99520091D01*
X105682916Y-99269534D01*
X104867133Y-99269534D01*
X104786863Y-100049927D01*
X105076657Y-100066169D01*
X105097782Y-100028041D01*
X105131624Y-99996413D01*
X105175532Y-99976088D01*
X105235403Y-99968631D01*
X105291023Y-99976474D01*
X105333246Y-99998382D01*
X105365425Y-100034625D01*
X105387066Y-100080507D01*
X105401303Y-100139642D01*
X105406543Y-100215340D01*
X105401829Y-100287702D01*
X105389394Y-100340774D01*
X105371153Y-100378959D01*
X105343257Y-100408000D01*
X105303023Y-100426501D01*
X105245917Y-100433413D01*
X105196509Y-100428363D01*
X105156180Y-100414169D01*
X105122990Y-100391354D01*
X105097703Y-100360567D01*
X105082172Y-100322690D01*
X105076657Y-100275607D01*
X104760020Y-100294756D01*
X104759080Y-100300483D01*
X104296179Y-100300483D01*
X104296179Y-100148406D01*
X104622304Y-100148406D01*
X104622304Y-99872033D01*
X104296179Y-99872033D01*
X104296179Y-99508636D01*
X103994930Y-99508636D01*
X103994930Y-99872033D01*
X103667779Y-99872033D01*
X103314635Y-99872033D01*
X103323893Y-99792437D01*
X103348835Y-99674822D01*
X103381318Y-99575571D01*
X103427052Y-99475755D01*
X103476132Y-99395880D01*
X103528171Y-99333038D01*
X103583148Y-99284836D01*
X103524848Y-99132758D01*
X103519120Y-99132758D01*
X103432232Y-99177424D01*
X103348226Y-99244857D01*
X103266265Y-99338989D01*
X103186242Y-99465124D01*
X103126489Y-99595797D01*
X103082255Y-99742845D01*
X103054480Y-99908626D01*
X103044764Y-100095832D01*
X102356798Y-100095832D01*
X102357123Y-100091045D01*
X102357123Y-99840489D01*
X102350138Y-99738664D01*
X102329910Y-99646752D01*
X102297046Y-99563243D01*
X102251497Y-99486900D01*
X102192564Y-99416825D01*
X102123603Y-99357100D01*
X102047645Y-99310827D01*
X101963702Y-99277326D01*
X101870407Y-99256622D01*
X101766079Y-99249445D01*
X101660858Y-99256648D01*
X101567003Y-99277402D01*
X101482789Y-99310937D01*
X101406813Y-99357195D01*
X101338056Y-99416825D01*
X101279359Y-99486869D01*
X101233977Y-99563196D01*
X101201223Y-99646707D01*
X101181059Y-99738635D01*
X101174225Y-99838608D01*
X101174096Y-99840489D01*
X100916020Y-99840489D01*
X101101092Y-99269534D01*
X100762571Y-99269534D01*
X100486198Y-100288088D01*
X100476624Y-100334934D01*
X100470896Y-100334934D01*
X100461322Y-100284241D01*
X100188710Y-99269534D01*
X99851130Y-99269534D01*
X99215976Y-99269534D01*
X98731106Y-99269534D01*
X98731106Y-99518210D01*
X98550647Y-99518210D01*
X98550647Y-99269534D01*
X97638265Y-99269534D01*
X97638265Y-100662000D01*
X97120582Y-100662000D01*
X97159257Y-100654144D01*
X97245561Y-100621747D01*
X97318979Y-100578310D01*
X97382117Y-100520991D01*
X97426211Y-100455271D01*
X97453066Y-100379494D01*
X97462423Y-100290909D01*
X97454125Y-100203147D01*
X97430450Y-100128281D01*
X97392059Y-100063760D01*
X97338042Y-100007868D01*
X97250419Y-99947264D01*
X97130807Y-99888552D01*
X96971824Y-99832795D01*
X96841603Y-99777082D01*
X96777175Y-99740557D01*
X96747829Y-99712798D01*
X96730837Y-99680646D01*
X96725029Y-99642505D01*
X96730639Y-99602755D01*
X96747195Y-99567855D01*
X96775722Y-99536419D01*
X96811836Y-99513329D01*
X96857245Y-99498644D01*
X96914464Y-99493334D01*
X96985337Y-99499121D01*
X97037748Y-99514558D01*
X97076031Y-99537786D01*
X97104492Y-99571181D01*
X97122817Y-99617403D01*
X97129630Y-99680803D01*
X97443274Y-99680803D01*
X97445240Y-99674990D01*
X97437671Y-99576262D01*
X97411515Y-99492998D01*
X97367615Y-99421919D01*
X97304617Y-99360918D01*
X97229820Y-99313987D01*
X97142551Y-99279233D01*
X97040566Y-99257236D01*
X96921132Y-99249445D01*
X96808365Y-99256856D01*
X96710175Y-99277967D01*
X96624358Y-99311639D01*
X96549101Y-99357498D01*
X96483890Y-99417066D01*
X96438965Y-99483032D01*
X96412015Y-99556769D01*
X96402751Y-99640625D01*
X96411229Y-99727856D01*
X96435253Y-99800833D01*
X96474016Y-99862453D01*
X96528499Y-99914604D01*
X96616536Y-99971006D01*
X96741728Y-100030892D01*
X96913438Y-100093952D01*
X97030352Y-100141746D01*
X97090392Y-100178582D01*
X97117016Y-100208138D01*
X97133364Y-100245431D01*
X97139204Y-100292875D01*
X97133561Y-100333822D01*
X97117197Y-100368328D01*
X97089452Y-100398022D01*
X97053943Y-100418944D01*
X97004951Y-100432935D01*
X96938314Y-100438200D01*
X96857437Y-100431519D01*
X96798119Y-100413752D01*
X96755205Y-100387080D01*
X96723916Y-100348608D01*
X96703270Y-100293086D01*
X96695451Y-100214400D01*
X96380781Y-100214400D01*
X96378900Y-100220128D01*
X96223344Y-100220128D01*
X96223344Y-98977202D01*
X110465262Y-98977202D01*
X110465262Y-101241219D01*
G37*
G36*
X86309700Y-113538207D02*
G01*
X86369214Y-113567575D01*
X86421842Y-113618140D01*
X86460476Y-113681514D01*
X86484585Y-113757297D01*
X86493136Y-113848608D01*
X86493136Y-114101045D01*
X86484548Y-114193629D01*
X86460405Y-114270021D01*
X86421842Y-114333479D01*
X86369220Y-114383992D01*
X86309706Y-114413334D01*
X86240699Y-114423324D01*
X86054171Y-114423324D01*
X86054171Y-113528210D01*
X86240699Y-113528210D01*
X86309700Y-113538207D01*
G37*
G36*
X86972937Y-115085806D02*
G01*
X79177442Y-115085806D01*
X79177442Y-114930250D01*
X82092967Y-114930250D01*
X82328222Y-114930250D01*
X82328222Y-113830400D01*
X83027489Y-113830400D01*
X83027489Y-114121134D01*
X83034423Y-114222086D01*
X83054420Y-114312309D01*
X83086766Y-114393435D01*
X83131429Y-114466793D01*
X83189056Y-114533343D01*
X83256502Y-114589706D01*
X83331129Y-114633575D01*
X83413947Y-114665459D01*
X83506319Y-114685224D01*
X83609898Y-114692088D01*
X83747485Y-114684281D01*
X83811346Y-114672000D01*
X84348147Y-114672000D01*
X84671366Y-114672000D01*
X84671366Y-113797915D01*
X84677093Y-113795949D01*
X85186840Y-114672000D01*
X85509118Y-114672000D01*
X85509118Y-113528210D01*
X85730952Y-113528210D01*
X85730952Y-114423324D01*
X85730952Y-114672000D01*
X86240699Y-114672000D01*
X86338125Y-114665283D01*
X86426720Y-114645768D01*
X86507850Y-114613950D01*
X86582633Y-114569709D01*
X86651882Y-114512314D01*
X86711179Y-114445116D01*
X86756956Y-114371485D01*
X86789986Y-114290507D01*
X86810340Y-114200892D01*
X86817381Y-114101045D01*
X86817381Y-113850489D01*
X86810355Y-113751073D01*
X86790029Y-113661703D01*
X86757018Y-113580807D01*
X86711232Y-113507118D01*
X86651882Y-113439733D01*
X86582606Y-113382135D01*
X86507811Y-113337751D01*
X86426682Y-113305838D01*
X86338101Y-113286269D01*
X86240699Y-113279534D01*
X85730952Y-113279534D01*
X85730952Y-113528210D01*
X85509118Y-113528210D01*
X85509118Y-113279534D01*
X85186840Y-113279534D01*
X85186840Y-114152678D01*
X85181113Y-114154644D01*
X84671366Y-113279534D01*
X84348147Y-113279534D01*
X84348147Y-114672000D01*
X83811346Y-114672000D01*
X83859170Y-114662803D01*
X83949359Y-114629941D01*
X84034007Y-114583569D01*
X84101418Y-114533454D01*
X84154010Y-114479744D01*
X84154010Y-113927938D01*
X83584082Y-113927938D01*
X83584082Y-114142163D01*
X83830792Y-114142163D01*
X83830792Y-114390839D01*
X83797492Y-114411544D01*
X83749923Y-114429137D01*
X83694052Y-114439344D01*
X83609898Y-114443413D01*
X83549865Y-114437515D01*
X83499036Y-114420712D01*
X83455537Y-114393444D01*
X83418155Y-114354936D01*
X83381416Y-114292548D01*
X83358131Y-114215823D01*
X83349767Y-114121134D01*
X83349767Y-113828519D01*
X83358112Y-113735774D01*
X83381476Y-113659752D01*
X83418583Y-113597111D01*
X83469814Y-113547379D01*
X83529432Y-113518175D01*
X83600324Y-113508121D01*
X83672028Y-113514516D01*
X83725410Y-113531689D01*
X83764797Y-113557874D01*
X83793841Y-113594559D01*
X83812469Y-113643875D01*
X83819337Y-113709866D01*
X84122466Y-113709866D01*
X84124433Y-113704138D01*
X84117410Y-113602818D01*
X84092777Y-113516636D01*
X84051532Y-113442569D01*
X83992871Y-113378526D01*
X83922279Y-113329495D01*
X83834223Y-113292347D01*
X83724938Y-113268206D01*
X83589809Y-113259445D01*
X83491292Y-113266267D01*
X83402935Y-113285973D01*
X83323183Y-113317911D01*
X83250769Y-113362099D01*
X83184781Y-113419217D01*
X83128731Y-113485952D01*
X83085236Y-113559336D01*
X83053719Y-113640307D01*
X83034239Y-113730143D01*
X83027489Y-113830400D01*
X82328222Y-113830400D01*
X82328222Y-113279534D01*
X82092967Y-113279534D01*
X82092967Y-114930250D01*
X79177442Y-114930250D01*
X79177442Y-113882033D01*
X79332998Y-113882033D01*
X79332998Y-114158406D01*
X79660150Y-114158406D01*
X79660150Y-114532403D01*
X79961399Y-114532403D01*
X79961399Y-114310483D01*
X80424300Y-114310483D01*
X80431074Y-114392859D01*
X80456265Y-114464933D01*
X80500149Y-114529281D01*
X80565350Y-114587369D01*
X80641043Y-114632695D01*
X80723106Y-114665261D01*
X80812672Y-114685222D01*
X80911137Y-114692088D01*
X81036764Y-114682352D01*
X81136663Y-114655588D01*
X81215924Y-114614197D01*
X81278381Y-114558732D01*
X81328700Y-114488990D01*
X81364919Y-114410972D01*
X81387287Y-114323132D01*
X81395068Y-114223460D01*
X81387523Y-114109721D01*
X81366538Y-114015887D01*
X81333891Y-113938550D01*
X81290348Y-113874937D01*
X81233910Y-113822486D01*
X81166907Y-113785163D01*
X81087126Y-113762512D01*
X80991407Y-113755771D01*
X80921377Y-113761697D01*
X80858991Y-113774920D01*
X80801906Y-113795548D01*
X80759059Y-113819885D01*
X80794450Y-113530091D01*
X81348136Y-113530091D01*
X81348136Y-113279534D01*
X80532353Y-113279534D01*
X80452083Y-114059927D01*
X80741877Y-114076169D01*
X80763002Y-114038041D01*
X80796844Y-114006413D01*
X80840752Y-113986088D01*
X80900622Y-113978631D01*
X80956243Y-113986474D01*
X80998466Y-114008382D01*
X81030645Y-114044625D01*
X81052286Y-114090507D01*
X81066523Y-114149642D01*
X81071763Y-114225340D01*
X81067048Y-114297702D01*
X81054614Y-114350774D01*
X81036372Y-114388959D01*
X81008477Y-114418000D01*
X80968243Y-114436501D01*
X80911137Y-114443413D01*
X80861729Y-114438363D01*
X80821400Y-114424169D01*
X80788210Y-114401354D01*
X80762923Y-114370567D01*
X80747392Y-114332690D01*
X80741877Y-114285607D01*
X80425240Y-114304756D01*
X80424300Y-114310483D01*
X79961399Y-114310483D01*
X79961399Y-114158406D01*
X80287524Y-114158406D01*
X80287524Y-113882033D01*
X79961399Y-113882033D01*
X79961399Y-113518636D01*
X79660150Y-113518636D01*
X79660150Y-113882033D01*
X79332998Y-113882033D01*
X79177442Y-113882033D01*
X79177442Y-113103889D01*
X86972937Y-113103889D01*
X86972937Y-115085806D01*
G37*
G36*
X113499377Y-100104456D02*
G01*
X113551947Y-100122528D01*
X113596964Y-100151968D01*
X113635669Y-100193779D01*
X113673595Y-100260794D01*
X113697445Y-100341319D01*
X113705938Y-100438608D01*
X113705938Y-100691045D01*
X113697457Y-100789641D01*
X113673712Y-100870774D01*
X113636097Y-100937840D01*
X113597635Y-100979648D01*
X113552932Y-101009055D01*
X113500761Y-101027093D01*
X113439139Y-101033413D01*
X113375454Y-101027027D01*
X113321947Y-101008878D01*
X113276513Y-100979450D01*
X113237822Y-100937840D01*
X113199964Y-100870744D01*
X113176081Y-100789612D01*
X113167554Y-100691045D01*
X113167554Y-100438608D01*
X113175971Y-100340620D01*
X113199542Y-100259961D01*
X113236882Y-100193266D01*
X113275104Y-100151893D01*
X113320204Y-100122596D01*
X113373539Y-100104499D01*
X113437259Y-100098121D01*
X113499377Y-100104456D01*
G37*
G36*
X114772398Y-100124613D02*
G01*
X114821283Y-100142314D01*
X114859729Y-100170356D01*
X114888808Y-100208006D01*
X114906566Y-100253027D01*
X114912815Y-100307560D01*
X114906579Y-100360668D01*
X114889189Y-100402345D01*
X114861097Y-100435274D01*
X114824137Y-100458811D01*
X114775537Y-100474096D01*
X114711926Y-100479726D01*
X114548393Y-100479726D01*
X114548393Y-100118210D01*
X114710045Y-100118210D01*
X114772398Y-100124613D01*
G37*
G36*
X118217851Y-100128207D02*
G01*
X118277365Y-100157575D01*
X118329993Y-100208140D01*
X118368627Y-100271514D01*
X118392736Y-100347297D01*
X118401287Y-100438608D01*
X118401287Y-100691045D01*
X118392699Y-100783629D01*
X118368556Y-100860021D01*
X118329993Y-100923479D01*
X118277371Y-100973992D01*
X118217857Y-101003334D01*
X118148850Y-101013324D01*
X117962322Y-101013324D01*
X117962322Y-100118210D01*
X118148850Y-100118210D01*
X118217851Y-100128207D01*
G37*
G36*
X119552941Y-100742678D02*
G01*
X119288023Y-100742678D01*
X119417105Y-100310381D01*
X119422918Y-100310381D01*
X119552941Y-100742678D01*
G37*
G36*
X120204823Y-101437644D02*
G01*
X111439587Y-101437644D01*
X111439587Y-100420400D01*
X111595143Y-100420400D01*
X111595143Y-100711134D01*
X111601919Y-100813222D01*
X111621411Y-100904072D01*
X111652829Y-100985346D01*
X111696024Y-101058413D01*
X111751495Y-101124283D01*
X111816816Y-101180165D01*
X111889690Y-101223733D01*
X111971180Y-101255477D01*
X112062730Y-101275214D01*
X112166097Y-101282088D01*
X112293422Y-101273297D01*
X112398714Y-101248793D01*
X112485788Y-101210532D01*
X112557704Y-101159247D01*
X112615976Y-101093451D01*
X112658118Y-101013540D01*
X112684115Y-100916488D01*
X112692086Y-100798158D01*
X112690120Y-100792430D01*
X112375535Y-100792430D01*
X112368838Y-100878131D01*
X112351482Y-100937673D01*
X112326210Y-100977933D01*
X112289518Y-101007133D01*
X112237861Y-101026240D01*
X112166097Y-101033413D01*
X112108028Y-101027546D01*
X112059218Y-101010864D01*
X112017740Y-100983786D01*
X111982390Y-100945449D01*
X111948178Y-100883686D01*
X111926278Y-100806836D01*
X111918361Y-100711134D01*
X111918361Y-100440489D01*
X112845275Y-100440489D01*
X112845275Y-100691045D01*
X112852271Y-100793306D01*
X112872518Y-100885465D01*
X112905385Y-100969058D01*
X112950901Y-101045339D01*
X113009748Y-101115222D01*
X113078630Y-101174623D01*
X113154798Y-101220736D01*
X113239278Y-101254187D01*
X113333483Y-101274898D01*
X113439139Y-101282088D01*
X113543994Y-101274904D01*
X113637467Y-101254208D01*
X113721284Y-101220772D01*
X113796855Y-101174660D01*
X113865197Y-101115222D01*
X113923505Y-101045410D01*
X113968640Y-100969165D01*
X114001254Y-100885570D01*
X114021355Y-100793372D01*
X114028302Y-100691045D01*
X114028302Y-100440489D01*
X114021318Y-100338664D01*
X114001089Y-100246752D01*
X113968225Y-100163243D01*
X113941357Y-100118210D01*
X114225174Y-100118210D01*
X114225174Y-100479726D01*
X114225174Y-101262000D01*
X114548393Y-101262000D01*
X114548393Y-100728317D01*
X114721500Y-100728317D01*
X114787062Y-100734893D01*
X114837188Y-100752864D01*
X114875458Y-100780975D01*
X114903655Y-100819206D01*
X114921585Y-100868747D01*
X114928117Y-100932968D01*
X114928117Y-101017170D01*
X114930882Y-101084097D01*
X114939572Y-101157793D01*
X114951358Y-101205811D01*
X114968216Y-101239378D01*
X114989324Y-101262000D01*
X115323058Y-101262000D01*
X115960861Y-101262000D01*
X116881791Y-101262000D01*
X117075158Y-101262000D01*
X117397437Y-101262000D01*
X117397437Y-100118210D01*
X117639103Y-100118210D01*
X117639103Y-101013324D01*
X117639103Y-101262000D01*
X118148850Y-101262000D01*
X118792637Y-101262000D01*
X119133124Y-101262000D01*
X119213394Y-100991354D01*
X119627569Y-100991354D01*
X119708866Y-101262000D01*
X120049267Y-101262000D01*
X119594059Y-99869534D01*
X119420952Y-99869534D01*
X119420012Y-99870475D01*
X119420012Y-99869534D01*
X119246905Y-99869534D01*
X118962057Y-100742678D01*
X118792637Y-101262000D01*
X118148850Y-101262000D01*
X118246275Y-101255283D01*
X118334871Y-101235768D01*
X118416001Y-101203950D01*
X118490783Y-101159709D01*
X118560033Y-101102314D01*
X118619330Y-101035116D01*
X118665107Y-100961485D01*
X118698137Y-100880507D01*
X118718491Y-100790892D01*
X118725532Y-100691045D01*
X118725532Y-100440489D01*
X118718505Y-100341073D01*
X118698180Y-100251703D01*
X118665169Y-100170807D01*
X118619382Y-100097118D01*
X118560033Y-100029733D01*
X118490757Y-99972135D01*
X118415962Y-99927751D01*
X118334833Y-99895838D01*
X118246251Y-99876269D01*
X118148850Y-99869534D01*
X117639103Y-99869534D01*
X117639103Y-100118210D01*
X117397437Y-100118210D01*
X117397437Y-99869534D01*
X117075158Y-99869534D01*
X117075158Y-101262000D01*
X116881791Y-101262000D01*
X116881791Y-101013324D01*
X116284080Y-101013324D01*
X116284080Y-99869534D01*
X115960861Y-99869534D01*
X115960861Y-101262000D01*
X115323058Y-101262000D01*
X115323058Y-101242851D01*
X115290214Y-101205498D01*
X115266638Y-101143432D01*
X115254168Y-101075172D01*
X115250396Y-101019051D01*
X115250396Y-100931087D01*
X115243663Y-100848531D01*
X115224662Y-100779029D01*
X115194403Y-100720196D01*
X115151344Y-100671082D01*
X115091336Y-100630651D01*
X115010354Y-100599234D01*
X115080852Y-100561881D01*
X115136029Y-100519765D01*
X115178161Y-100472973D01*
X115209386Y-100418869D01*
X115228469Y-100357626D01*
X115235094Y-100287471D01*
X115225754Y-100193167D01*
X115199013Y-100112412D01*
X115155390Y-100042431D01*
X115093531Y-99981434D01*
X115020586Y-99934572D01*
X114934136Y-99899678D01*
X114831649Y-99877452D01*
X114710045Y-99869534D01*
X114225174Y-99869534D01*
X114225174Y-100118210D01*
X113941357Y-100118210D01*
X113922676Y-100086900D01*
X113863743Y-100016825D01*
X113794782Y-99957100D01*
X113718824Y-99910827D01*
X113634881Y-99877326D01*
X113541586Y-99856622D01*
X113437259Y-99849445D01*
X113332038Y-99856648D01*
X113238182Y-99877402D01*
X113153969Y-99910937D01*
X113077992Y-99957195D01*
X113009235Y-100016825D01*
X112950539Y-100086869D01*
X112905157Y-100163196D01*
X112872403Y-100246707D01*
X112852238Y-100338635D01*
X112845404Y-100438608D01*
X112845275Y-100440489D01*
X111918361Y-100440489D01*
X111918361Y-100418519D01*
X111925632Y-100323046D01*
X111945656Y-100246667D01*
X111976662Y-100185658D01*
X112021359Y-100136911D01*
X112076045Y-100108154D01*
X112144042Y-100098121D01*
X112225201Y-100105447D01*
X112282783Y-100124731D01*
X112322876Y-100153601D01*
X112351118Y-100194298D01*
X112370148Y-100253353D01*
X112377416Y-100337223D01*
X112692086Y-100337223D01*
X112694907Y-100331495D01*
X112689846Y-100236688D01*
X112672464Y-100155389D01*
X112643916Y-100085404D01*
X112604543Y-100024956D01*
X112553857Y-99972800D01*
X112478821Y-99921469D01*
X112387775Y-99883014D01*
X112277502Y-99858317D01*
X112144042Y-99849445D01*
X112045301Y-99856283D01*
X111957634Y-99875948D01*
X111879342Y-99907677D01*
X111809048Y-99951403D01*
X111745767Y-100007764D01*
X111681012Y-100091054D01*
X111634295Y-100185988D01*
X111605295Y-100294786D01*
X111595143Y-100420400D01*
X111439587Y-100420400D01*
X111439587Y-99693889D01*
X120204823Y-99693889D01*
X120204823Y-101437644D01*
G37*
D11*
G04 #@! TO.P,R11,1*
G04 #@! TO.N,Net-(MosfetControleVerde1-D)*
X184920000Y-85720000D03*
D12*
G04 #@! TO.P,R11,2*
G04 #@! TO.N,Net-(D5-GK)*
X179840000Y-85720000D03*
G04 #@! TD*
D13*
G04 #@! TO.P,TP3,1,1*
G04 #@! TO.N,SENS_RED_ON*
X134830000Y-89220000D03*
G04 #@! TD*
D14*
G04 #@! TO.P,R25,1*
G04 #@! TO.N,GND*
X89910000Y-101580000D03*
G04 #@! TO.P,R25,2*
G04 #@! TO.N,Net-(R21-Pad1)*
X91910000Y-101580000D03*
G04 #@! TD*
D15*
G04 #@! TO.P,U1,1*
G04 #@! TO.N,unconnected-(U1-Pad1)*
X153170000Y-77230000D03*
D16*
G04 #@! TO.P,U1,2,-*
G04 #@! TO.N,unconnected-(U1A---Pad2)*
X150630000Y-77230000D03*
G04 #@! TO.P,U1,3,+*
G04 #@! TO.N,unconnected-(U1A-+-Pad3)*
X148090000Y-77230000D03*
G04 #@! TO.P,U1,4,V+*
G04 #@! TO.N,+3V3*
X145550000Y-77230000D03*
G04 #@! TO.P,U1,5,+*
G04 #@! TO.N,unconnected-(U1B-+-Pad5)*
X143010000Y-77230000D03*
G04 #@! TO.P,U1,6,-*
G04 #@! TO.N,unconnected-(U1B---Pad6)*
X140470000Y-77230000D03*
G04 #@! TO.P,U1,7*
G04 #@! TO.N,unconnected-(U1-Pad7)*
X137930000Y-77230000D03*
G04 #@! TO.P,U1,8*
G04 #@! TO.N,LDR_SIG_TREATED*
X137930000Y-84850000D03*
G04 #@! TO.P,U1,9,-*
G04 #@! TO.N,Net-(U1C--)*
X140470000Y-84850000D03*
G04 #@! TO.P,U1,10,+*
G04 #@! TO.N,LDR_SIG_RAW*
X143010000Y-84850000D03*
G04 #@! TO.P,U1,11,V-*
G04 #@! TO.N,GND*
X145550000Y-84850000D03*
G04 #@! TO.P,U1,12,+*
G04 #@! TO.N,unconnected-(U1D-+-Pad12)*
X148090000Y-84850000D03*
G04 #@! TO.P,U1,13,-*
G04 #@! TO.N,unconnected-(U1D---Pad13)*
X150630000Y-84850000D03*
G04 #@! TO.P,U1,14*
G04 #@! TO.N,unconnected-(U1-Pad14)*
X153170000Y-84850000D03*
G04 #@! TD*
D11*
G04 #@! TO.P,R12,1*
G04 #@! TO.N,Net-(MosfetControleAzul1-D)*
X184800000Y-81620000D03*
D12*
G04 #@! TO.P,R12,2*
G04 #@! TO.N,Net-(D5-BK)*
X179720000Y-81620000D03*
G04 #@! TD*
D17*
G04 #@! TO.P,A1,1,GPIO0*
G04 #@! TO.N,unconnected-(A1-GPIO0-Pad1)*
X78912500Y-88720000D03*
D11*
G04 #@! TO.P,A1,2,GPIO1*
G04 #@! TO.N,unconnected-(A1-GPIO1-Pad2)*
X81452500Y-88720000D03*
D18*
G04 #@! TO.P,A1,3,GND*
G04 #@! TO.N,GND*
X83992500Y-88720000D03*
D11*
G04 #@! TO.P,A1,4,GPIO2*
G04 #@! TO.N,unconnected-(A1-GPIO2-Pad4)*
X86532500Y-88720000D03*
G04 #@! TO.P,A1,5,GPIO3*
G04 #@! TO.N,unconnected-(A1-GPIO3-Pad5)*
X89072500Y-88720000D03*
G04 #@! TO.P,A1,6,GPIO4*
G04 #@! TO.N,unconnected-(A1-GPIO4-Pad6)*
X91612500Y-88720000D03*
G04 #@! TO.P,A1,7,GPIO5*
G04 #@! TO.N,unconnected-(A1-GPIO5-Pad7)*
X94152500Y-88720000D03*
D18*
G04 #@! TO.P,A1,8,GND*
G04 #@! TO.N,GND*
X96692500Y-88720000D03*
D11*
G04 #@! TO.P,A1,9,GPIO6*
G04 #@! TO.N,unconnected-(A1-GPIO6-Pad9)*
X99232500Y-88720000D03*
G04 #@! TO.P,A1,10,GPIO7*
G04 #@! TO.N,Servo_PWM*
X101772500Y-88720000D03*
G04 #@! TO.P,A1,11,GPIO8*
G04 #@! TO.N,unconnected-(A1-GPIO8-Pad11)*
X104312500Y-88720000D03*
G04 #@! TO.P,A1,12,GPIO9*
G04 #@! TO.N,unconnected-(A1-GPIO9-Pad12)*
X106852500Y-88720000D03*
D18*
G04 #@! TO.P,A1,13,GND*
G04 #@! TO.N,GND*
X109392500Y-88720000D03*
D11*
G04 #@! TO.P,A1,14,GPIO10*
G04 #@! TO.N,DISP_RED_ON*
X111932500Y-88720000D03*
G04 #@! TO.P,A1,15,GPIO11*
G04 #@! TO.N,DISP_GREEN_ON*
X114472500Y-88720000D03*
G04 #@! TO.P,A1,16,GPIO12*
G04 #@! TO.N,DISP_BLUE_ON*
X117012500Y-88720000D03*
G04 #@! TO.P,A1,17,GPIO13*
G04 #@! TO.N,SENS_BLUE_ON*
X119552500Y-88720000D03*
D18*
G04 #@! TO.P,A1,18,GND*
G04 #@! TO.N,GND*
X122092500Y-88720000D03*
D11*
G04 #@! TO.P,A1,19,GPIO14*
G04 #@! TO.N,SENS_GREEN_ON*
X124632500Y-88720000D03*
G04 #@! TO.P,A1,20,GPIO15*
G04 #@! TO.N,SENS_RED_ON*
X127172500Y-88720000D03*
G04 #@! TO.P,A1,21,GPIO16*
G04 #@! TO.N,unconnected-(A1-GPIO16-Pad21)*
X127172500Y-70940000D03*
G04 #@! TO.P,A1,22,GPIO17*
G04 #@! TO.N,unconnected-(A1-GPIO17-Pad22)*
X124632500Y-70940000D03*
D19*
G04 #@! TO.P,A1,23,GND*
G04 #@! TO.N,GND*
X122092500Y-70940000D03*
D11*
G04 #@! TO.P,A1,24,GPIO18*
G04 #@! TO.N,unconnected-(A1-GPIO18-Pad24)*
X119552500Y-70940000D03*
G04 #@! TO.P,A1,25,GPIO19*
G04 #@! TO.N,unconnected-(A1-GPIO19-Pad25)*
X117012500Y-70940000D03*
G04 #@! TO.P,A1,26,GPIO20*
G04 #@! TO.N,unconnected-(A1-GPIO20-Pad26)*
X114472500Y-70940000D03*
G04 #@! TO.P,A1,27,GPIO21*
G04 #@! TO.N,unconnected-(A1-GPIO21-Pad27)*
X111932500Y-70940000D03*
D19*
G04 #@! TO.P,A1,28,GND*
G04 #@! TO.N,GND*
X109392500Y-70940000D03*
D11*
G04 #@! TO.P,A1,29,GPIO22*
G04 #@! TO.N,unconnected-(A1-GPIO22-Pad29)*
X106852500Y-70940000D03*
G04 #@! TO.P,A1,30,RUN*
G04 #@! TO.N,unconnected-(A1-RUN-Pad30)*
X104312500Y-70940000D03*
G04 #@! TO.P,A1,31,GPIO26_ADC0*
G04 #@! TO.N,Net-(A1-GPIO26_ADC0)*
X101772500Y-70940000D03*
G04 #@! TO.P,A1,32,GPIO27_ADC1*
G04 #@! TO.N,Net-(A1-GPIO27_ADC1)*
X99232500Y-70940000D03*
D19*
G04 #@! TO.P,A1,33,AGND*
G04 #@! TO.N,GND*
X96692500Y-70940000D03*
D11*
G04 #@! TO.P,A1,34,GPIO28_ADC2*
G04 #@! TO.N,Net-(A1-GPIO28_ADC2)*
X94152500Y-70940000D03*
G04 #@! TO.P,A1,35,ADC_VREF*
G04 #@! TO.N,unconnected-(A1-ADC_VREF-Pad35)*
X91612500Y-70940000D03*
G04 #@! TO.P,A1,36,3V3*
G04 #@! TO.N,+3V3*
X89072500Y-70940000D03*
G04 #@! TO.P,A1,37,3V3_EN*
G04 #@! TO.N,unconnected-(A1-3V3_EN-Pad37)*
X86532500Y-70940000D03*
D19*
G04 #@! TO.P,A1,38,GND*
G04 #@! TO.N,GND*
X83992500Y-70940000D03*
D11*
G04 #@! TO.P,A1,39,VSYS*
G04 #@! TO.N,+5V*
X81452500Y-70940000D03*
G04 #@! TO.P,A1,40,VBUS*
G04 #@! TO.N,unconnected-(A1-VBUS-Pad40)*
X78912500Y-70940000D03*
G04 #@! TD*
D20*
G04 #@! TO.P,R24,1*
G04 #@! TO.N,Net-(MosfetControleAzul1-G)*
X137497500Y-99310000D03*
G04 #@! TO.P,R24,2*
G04 #@! TO.N,GND*
X139322500Y-99310000D03*
G04 #@! TD*
D13*
G04 #@! TO.P,TP1,1,1*
G04 #@! TO.N,SENS_BLUE_ON*
X132090000Y-97890000D03*
G04 #@! TD*
D21*
G04 #@! TO.P,LED_5V_ON1,1,K*
G04 #@! TO.N,Net-(LED_5V_ON1-K)*
X91760000Y-107725000D03*
G04 #@! TO.P,LED_5V_ON1,2,A*
G04 #@! TO.N,+5V*
X91760000Y-109775000D03*
G04 #@! TD*
D22*
G04 #@! TO.P,RV1,1,1*
G04 #@! TO.N,unconnected-(RV1-Pad1)*
X132760000Y-78250000D03*
D23*
G04 #@! TO.P,RV1,2,2*
G04 #@! TO.N,Net-(U1C--)*
X132760000Y-80790000D03*
G04 #@! TO.P,RV1,3,3*
G04 #@! TO.N,LDR_SIG_TREATED*
X132760000Y-83330000D03*
G04 #@! TD*
D24*
G04 #@! TO.P,R9,1*
G04 #@! TO.N,Net-(MosfetControleVerde1-G)*
X139532500Y-93350000D03*
G04 #@! TO.P,R9,2*
G04 #@! TO.N,SENS_GREEN_ON*
X137707500Y-93350000D03*
G04 #@! TD*
D11*
G04 #@! TO.P,R14,1*
G04 #@! TO.N,Net-(MosfetControleVerde1-D)*
X172770000Y-74670000D03*
D12*
G04 #@! TO.P,R14,2*
G04 #@! TO.N,Net-(D6-GK)*
X167690000Y-74670000D03*
G04 #@! TD*
D11*
G04 #@! TO.P,R15,1*
G04 #@! TO.N,Net-(MosfetControleAzul1-D)*
X172340000Y-70800000D03*
D12*
G04 #@! TO.P,R15,2*
G04 #@! TO.N,Net-(D6-BK)*
X167260000Y-70800000D03*
G04 #@! TD*
D25*
G04 #@! TO.P,ServoControl1,1,Pin_1*
G04 #@! TO.N,+5V*
X104210000Y-97180000D03*
D26*
G04 #@! TO.P,ServoControl1,2,Pin_2*
G04 #@! TO.N,Servo_PWM*
X106750000Y-97180000D03*
G04 #@! TO.P,ServoControl1,3,Pin_3*
G04 #@! TO.N,GND*
X109290000Y-97180000D03*
G04 #@! TD*
D27*
G04 #@! TO.P,R21,1*
G04 #@! TO.N,Net-(R21-Pad1)*
X91790000Y-103770000D03*
G04 #@! TO.P,R21,2*
G04 #@! TO.N,Net-(LED_5V_ON1-K)*
X91790000Y-105770000D03*
G04 #@! TD*
D20*
G04 #@! TO.P,R22,1*
G04 #@! TO.N,Net-(MosfetControleVerde1-G)*
X138517500Y-95300000D03*
G04 #@! TO.P,R22,2*
G04 #@! TO.N,GND*
X140342500Y-95300000D03*
G04 #@! TD*
D24*
G04 #@! TO.P,R23,1*
G04 #@! TO.N,Net-(MosfetControleAzul1-G)*
X138412500Y-97310000D03*
G04 #@! TO.P,R23,2*
G04 #@! TO.N,SENS_BLUE_ON*
X136587500Y-97310000D03*
G04 #@! TD*
D13*
G04 #@! TO.P,TP2,1,1*
G04 #@! TO.N,SENS_GREEN_ON*
X133930000Y-93050000D03*
G04 #@! TD*
D11*
G04 #@! TO.P,C2,1*
G04 #@! TO.N,GND*
X94150000Y-94540000D03*
G04 #@! TO.P,C2,2*
G04 #@! TO.N,+5V*
X94150000Y-97040000D03*
G04 #@! TD*
D28*
G04 #@! TO.P,MosfetControleVerde1,1,G*
G04 #@! TO.N,Net-(MosfetControleVerde1-G)*
X142460000Y-93270000D03*
G04 #@! TO.P,MosfetControleVerde1,2,S*
G04 #@! TO.N,GND*
X142460000Y-95170000D03*
G04 #@! TO.P,MosfetControleVerde1,3,D*
G04 #@! TO.N,Net-(MosfetControleVerde1-D)*
X145460000Y-94220000D03*
G04 #@! TD*
D29*
G04 #@! TO.P,D1,1,RA*
G04 #@! TO.N,Net-(D1-RA)*
X113282000Y-96146000D03*
D30*
G04 #@! TO.P,D1,2,K*
G04 #@! TO.N,GND*
X115060000Y-97670000D03*
G04 #@! TO.P,D1,3,GA*
G04 #@! TO.N,Net-(D1-GA)*
X116584000Y-96146000D03*
G04 #@! TO.P,D1,4,BA*
G04 #@! TO.N,Net-(D1-BA)*
X118108000Y-97670000D03*
G04 #@! TD*
D20*
G04 #@! TO.P,R8,1*
G04 #@! TO.N,Net-(MosfetControleVermelho1-G)*
X138535000Y-91360000D03*
G04 #@! TO.P,R8,2*
G04 #@! TO.N,GND*
X140360000Y-91360000D03*
G04 #@! TD*
D11*
G04 #@! TO.P,R5,1*
G04 #@! TO.N,Net-(MosfetControleVerde1-D)*
X149120000Y-92790000D03*
D12*
G04 #@! TO.P,R5,2*
G04 #@! TO.N,Net-(D4-GK)*
X154200000Y-92790000D03*
G04 #@! TD*
D28*
G04 #@! TO.P,MosfetControleAzul1,1,G*
G04 #@! TO.N,Net-(MosfetControleAzul1-G)*
X141550000Y-97540000D03*
G04 #@! TO.P,MosfetControleAzul1,2,S*
G04 #@! TO.N,GND*
X141550000Y-99440000D03*
G04 #@! TO.P,MosfetControleAzul1,3,D*
G04 #@! TO.N,Net-(MosfetControleAzul1-D)*
X144550000Y-98490000D03*
G04 #@! TD*
G04 #@! TO.P,MosfetControleVermelho1,1,G*
G04 #@! TO.N,Net-(MosfetControleVermelho1-G)*
X142437500Y-89342500D03*
G04 #@! TO.P,MosfetControleVermelho1,2,S*
G04 #@! TO.N,GND*
X142437500Y-91242500D03*
G04 #@! TO.P,MosfetControleVermelho1,3,D*
G04 #@! TO.N,Net-(MosfetControleVermelho1-D)*
X145437500Y-90292500D03*
G04 #@! TD*
D24*
G04 #@! TO.P,R7,1*
G04 #@! TO.N,Net-(MosfetControleVermelho1-G)*
X139750000Y-89350000D03*
G04 #@! TO.P,R7,2*
G04 #@! TO.N,SENS_RED_ON*
X137925000Y-89350000D03*
G04 #@! TD*
D11*
G04 #@! TO.P,R4,1*
G04 #@! TO.N,Net-(MosfetControleVermelho1-D)*
X149120000Y-88970000D03*
D12*
G04 #@! TO.P,R4,2*
G04 #@! TO.N,Net-(D4-RK)*
X154200000Y-88970000D03*
G04 #@! TD*
D11*
G04 #@! TO.P,R13,1*
G04 #@! TO.N,Net-(MosfetControleVermelho1-D)*
X173010000Y-78580000D03*
D12*
G04 #@! TO.P,R13,2*
G04 #@! TO.N,Net-(D6-RK)*
X167930000Y-78580000D03*
G04 #@! TD*
D11*
G04 #@! TO.P,R6,1*
G04 #@! TO.N,Net-(MosfetControleAzul1-D)*
X149080000Y-96570000D03*
D12*
G04 #@! TO.P,R6,2*
G04 #@! TO.N,Net-(D4-BK)*
X154160000Y-96570000D03*
G04 #@! TD*
D11*
G04 #@! TO.P,R10,1*
G04 #@! TO.N,Net-(MosfetControleVermelho1-D)*
X184900000Y-89690000D03*
D12*
G04 #@! TO.P,R10,2*
G04 #@! TO.N,Net-(D5-RK)*
X179820000Y-89690000D03*
G04 #@! TD*
D31*
G04 #@! TO.P,D5,1,RK*
G04 #@! TO.N,Net-(D5-RK)*
X175370000Y-87042000D03*
D30*
G04 #@! TO.P,D5,2,A*
G04 #@! TO.N,+5V*
X173846000Y-85264000D03*
G04 #@! TO.P,D5,3,GK*
G04 #@! TO.N,Net-(D5-GK)*
X175370000Y-83740000D03*
G04 #@! TO.P,D5,4,BK*
G04 #@! TO.N,Net-(D5-BK)*
X173846000Y-82216000D03*
G04 #@! TD*
D32*
G04 #@! TO.P,5V_IN1,*
G04 #@! TO.N,*
X77460000Y-109435000D03*
X88460000Y-109435000D03*
D33*
G04 #@! TO.P,5V_IN1,1,Pin_1*
G04 #@! TO.N,GND*
X85460000Y-99435000D03*
D34*
G04 #@! TO.P,5V_IN1,2,Pin_2*
G04 #@! TO.N,+5V*
X80460000Y-99435000D03*
G04 #@! TD*
D35*
G04 #@! TO.P,D4,1,RK*
G04 #@! TO.N,Net-(D4-RK)*
X161862969Y-89894415D03*
D30*
G04 #@! TO.P,D4,2,A*
G04 #@! TO.N,+5V*
X162293792Y-92196208D03*
G04 #@! TO.P,D4,3,GK*
G04 #@! TO.N,Net-(D4-GK)*
X160211969Y-92754031D03*
G04 #@! TO.P,D4,4,BK*
G04 #@! TO.N,Net-(D4-BK)*
X160769792Y-94835854D03*
G04 #@! TD*
D36*
G04 #@! TO.P,D6,1,RK*
G04 #@! TO.N,Net-(D6-RK)*
X163154792Y-78755824D03*
D30*
G04 #@! TO.P,D6,2,A*
G04 #@! TO.N,+5V*
X160945969Y-77978031D03*
G04 #@! TO.P,D6,3,GK*
G04 #@! TO.N,Net-(D6-GK)*
X161503792Y-75896208D03*
G04 #@! TO.P,D6,4,BK*
G04 #@! TO.N,Net-(D6-BK)*
X159421969Y-75338385D03*
G04 #@! TD*
D11*
G04 #@! TO.P,R1,1*
G04 #@! TO.N,+3V3*
X165510000Y-83140000D03*
G04 #@! TO.P,R1,2*
G04 #@! TO.N,LDR_SIG_RAW*
X165510000Y-86140000D03*
G04 #@! TD*
D37*
G04 #@! TO.N,GND*
X146090000Y-96600000D03*
X145480140Y-100428610D03*
X146370000Y-92150000D03*
G04 #@! TO.N,+3V3*
X142740000Y-73910000D03*
X161330000Y-83190000D03*
X90510000Y-74040000D03*
G04 #@! TO.N,+5V*
X154520000Y-71750000D03*
G04 #@! TO.N,SENS_RED_ON*
X130610000Y-91360000D03*
G04 #@! TO.N,SENS_BLUE_ON*
X123450000Y-95380000D03*
G04 #@! TO.N,SENS_GREEN_ON*
X128850000Y-94120000D03*
G04 #@! TO.N,LDR_SIG_TREATED*
X130380000Y-88490000D03*
X110570000Y-77700000D03*
G04 #@! TO.N,LDR_SIG_RAW*
X142190000Y-82440000D03*
X149560000Y-81700000D03*
X161210000Y-86080000D03*
G04 #@! TD*
D38*
G04 #@! TO.N,GND*
X143422500Y-91242500D02*
X144350000Y-92170000D01*
X142460000Y-95170000D02*
X143590000Y-96300000D01*
X140342500Y-95300000D02*
X142330000Y-95300000D01*
X87605000Y-101580000D02*
X85460000Y-99435000D01*
X142330000Y-95300000D02*
X142460000Y-95170000D01*
X141550000Y-99440000D02*
X144491530Y-99440000D01*
X89910000Y-101580000D02*
X87605000Y-101580000D01*
X145790000Y-96300000D02*
X146090000Y-96600000D01*
X142437500Y-91242500D02*
X140477500Y-91242500D01*
X144350000Y-92170000D02*
X146350000Y-92170000D01*
X143590000Y-96300000D02*
X145790000Y-96300000D01*
X144491530Y-99440000D02*
X145480140Y-100428610D01*
X142437500Y-91242500D02*
X143422500Y-91242500D01*
X139322500Y-99310000D02*
X141420000Y-99310000D01*
X140477500Y-91242500D02*
X140360000Y-91360000D01*
X141420000Y-99310000D02*
X141550000Y-99440000D01*
X146350000Y-92170000D02*
X146370000Y-92150000D01*
D39*
G04 #@! TO.N,+3V3*
X161380000Y-83140000D02*
X161330000Y-83190000D01*
D38*
X90510000Y-74040000D02*
X90640000Y-73910000D01*
D39*
X165510000Y-83140000D02*
X161380000Y-83140000D01*
D38*
X90640000Y-73910000D02*
X142740000Y-73910000D01*
D40*
G04 #@! TO.N,+5V*
X160945969Y-79955969D02*
X160945969Y-77978031D01*
D38*
X77180000Y-98840000D02*
X78080000Y-97940000D01*
D40*
X173846000Y-85264000D02*
X169602000Y-81020000D01*
D38*
X78080000Y-97940000D02*
X78965000Y-97940000D01*
D40*
X162293792Y-92196208D02*
X166913792Y-92196208D01*
X166913792Y-92196208D02*
X173846000Y-85264000D01*
D38*
X77180000Y-102750000D02*
X77180000Y-98840000D01*
D41*
X154520000Y-74810000D02*
X154520000Y-71750000D01*
D38*
X91760000Y-109775000D02*
X91555000Y-109775000D01*
X79810000Y-105380000D02*
X77180000Y-102750000D01*
X91555000Y-109775000D02*
X87160000Y-105380000D01*
D41*
X157688031Y-77978031D02*
X154520000Y-74810000D01*
D40*
X162010000Y-81020000D02*
X160945969Y-79955969D01*
D41*
X160945969Y-77978031D02*
X157688031Y-77978031D01*
D38*
X78965000Y-97940000D02*
X80460000Y-99435000D01*
X87160000Y-105380000D02*
X79810000Y-105380000D01*
D40*
X169602000Y-81020000D02*
X162010000Y-81020000D01*
D38*
G04 #@! TO.N,Net-(MosfetControleAzul1-G)*
X138412500Y-97310000D02*
X138412500Y-97819912D01*
X141320000Y-97310000D02*
X141550000Y-97540000D01*
X138412500Y-97310000D02*
X141320000Y-97310000D01*
X137497500Y-98734912D02*
X137497500Y-99310000D01*
X138412500Y-97819912D02*
X137497500Y-98734912D01*
G04 #@! TO.N,Net-(MosfetControleVerde1-G)*
X138517500Y-94802500D02*
X139532500Y-93787500D01*
X139532500Y-93350000D02*
X142380000Y-93350000D01*
X138517500Y-95300000D02*
X138517500Y-94802500D01*
X139532500Y-93787500D02*
X139532500Y-93350000D01*
X142380000Y-93350000D02*
X142460000Y-93270000D01*
G04 #@! TO.N,Net-(MosfetControleVermelho1-G)*
X142430000Y-89350000D02*
X142437500Y-89342500D01*
X139750000Y-89350000D02*
X139750000Y-89642412D01*
X139750000Y-89642412D02*
X138535000Y-90857412D01*
X139750000Y-89350000D02*
X142430000Y-89350000D01*
X138535000Y-90857412D02*
X138535000Y-91360000D01*
G04 #@! TO.N,Net-(D4-GK)*
X154235969Y-92754031D02*
X154200000Y-92790000D01*
X160211969Y-92754031D02*
X154235969Y-92754031D01*
G04 #@! TO.N,Net-(D4-RK)*
X155124415Y-89894415D02*
X154200000Y-88970000D01*
X161862969Y-89894415D02*
X155124415Y-89894415D01*
G04 #@! TO.N,Net-(D4-BK)*
X154160000Y-96570000D02*
X155894146Y-94835854D01*
X155894146Y-94835854D02*
X160769792Y-94835854D01*
G04 #@! TO.N,Net-(D5-GK)*
X177860000Y-83740000D02*
X179840000Y-85720000D01*
X175370000Y-83740000D02*
X177860000Y-83740000D01*
G04 #@! TO.N,Net-(D5-RK)*
X175370000Y-87042000D02*
X177172000Y-87042000D01*
X177172000Y-87042000D02*
X179820000Y-89690000D01*
G04 #@! TO.N,Net-(D5-BK)*
X174732000Y-81330000D02*
X179430000Y-81330000D01*
X179430000Y-81330000D02*
X179720000Y-81620000D01*
X173846000Y-82216000D02*
X174732000Y-81330000D01*
G04 #@! TO.N,Net-(D6-GK)*
X162860000Y-74540000D02*
X167560000Y-74540000D01*
X161503792Y-75896208D02*
X162860000Y-74540000D01*
X167560000Y-74540000D02*
X167690000Y-74670000D01*
G04 #@! TO.N,Net-(D6-BK)*
X159421969Y-75338385D02*
X163960354Y-70800000D01*
X163960354Y-70800000D02*
X167260000Y-70800000D01*
G04 #@! TO.N,Net-(D6-RK)*
X163154792Y-78755824D02*
X167754176Y-78755824D01*
X167754176Y-78755824D02*
X167930000Y-78580000D01*
G04 #@! TO.N,Net-(MosfetControleAzul1-D)*
X150590000Y-100770000D02*
X182220000Y-100770000D01*
X149080000Y-96570000D02*
X149080000Y-98150000D01*
X182220000Y-100770000D02*
X189630000Y-93360000D01*
X148740000Y-98490000D02*
X149080000Y-98150000D01*
X149080000Y-99260000D02*
X150590000Y-100770000D01*
X144550000Y-98490000D02*
X148740000Y-98490000D01*
X149080000Y-98150000D02*
X149080000Y-99260000D01*
X184800000Y-73440000D02*
X184800000Y-81620000D01*
X182160000Y-70800000D02*
X184800000Y-73440000D01*
X172340000Y-70800000D02*
X182160000Y-70800000D01*
X189630000Y-86450000D02*
X184800000Y-81620000D01*
X189630000Y-93360000D02*
X189630000Y-86450000D01*
G04 #@! TO.N,Net-(MosfetControleVerde1-D)*
X185800000Y-85720000D02*
X188170000Y-88090000D01*
X150750000Y-94420000D02*
X149120000Y-92790000D01*
X188170000Y-92610000D02*
X181330000Y-99450000D01*
X147690000Y-94220000D02*
X149120000Y-92790000D01*
X180780000Y-74670000D02*
X182910000Y-76800000D01*
X188170000Y-88090000D02*
X188170000Y-92610000D01*
X182910000Y-84080000D02*
X184550000Y-85720000D01*
X182910000Y-76800000D02*
X182910000Y-84080000D01*
X181330000Y-99450000D02*
X152120000Y-99450000D01*
X145460000Y-94220000D02*
X147690000Y-94220000D01*
X184920000Y-85720000D02*
X185800000Y-85720000D01*
X152120000Y-99450000D02*
X150750000Y-98080000D01*
X150750000Y-98080000D02*
X150750000Y-94420000D01*
X184550000Y-85720000D02*
X184920000Y-85720000D01*
X172770000Y-74670000D02*
X180780000Y-74670000D01*
G04 #@! TO.N,Net-(MosfetControleVermelho1-D)*
X152100000Y-97370000D02*
X152960000Y-98230000D01*
X181560000Y-87630000D02*
X183620000Y-89690000D01*
X146820000Y-88910000D02*
X149060000Y-88910000D01*
X173010000Y-78580000D02*
X179890000Y-78580000D01*
X145437500Y-90292500D02*
X146820000Y-88910000D01*
X181560000Y-80250000D02*
X181560000Y-87630000D01*
X152100000Y-91950000D02*
X152100000Y-97370000D01*
X149060000Y-88910000D02*
X149120000Y-88970000D01*
X184900000Y-93380000D02*
X184900000Y-89690000D01*
X180050000Y-98230000D02*
X184900000Y-93380000D01*
X179890000Y-78580000D02*
X181560000Y-80250000D01*
X183620000Y-89690000D02*
X184900000Y-89690000D01*
X152960000Y-98230000D02*
X180050000Y-98230000D01*
X149120000Y-88970000D02*
X152100000Y-91950000D01*
G04 #@! TO.N,SENS_RED_ON*
X137925000Y-89350000D02*
X135120000Y-89350000D01*
X135120000Y-89350000D02*
X135120000Y-89180000D01*
X135120000Y-89350000D02*
X135110000Y-89340000D01*
X132630000Y-89340000D02*
X130610000Y-91360000D01*
X135110000Y-89340000D02*
X132630000Y-89340000D01*
G04 #@! TO.N,SENS_BLUE_ON*
X136587500Y-97310000D02*
X132670000Y-97310000D01*
X132670000Y-97310000D02*
X132090000Y-97890000D01*
X125960000Y-97890000D02*
X123450000Y-95380000D01*
X132090000Y-97890000D02*
X125960000Y-97890000D01*
G04 #@! TO.N,SENS_GREEN_ON*
X137707500Y-93350000D02*
X137567500Y-93210000D01*
X137567500Y-93210000D02*
X129760000Y-93210000D01*
X129760000Y-93210000D02*
X128850000Y-94120000D01*
G04 #@! TO.N,Net-(LED_5V_ON1-K)*
X91760000Y-105800000D02*
X91790000Y-105770000D01*
X91760000Y-107725000D02*
X91760000Y-105800000D01*
G04 #@! TO.N,Net-(R21-Pad1)*
X91790000Y-103770000D02*
X91790000Y-101700000D01*
X91790000Y-101700000D02*
X91910000Y-101580000D01*
G04 #@! TO.N,LDR_SIG_TREATED*
X130380000Y-82150000D02*
X130380000Y-88490000D01*
X125930000Y-77700000D02*
X130380000Y-82150000D01*
X110570000Y-77700000D02*
X125930000Y-77700000D01*
G04 #@! TO.N,LDR_SIG_RAW*
X165510000Y-86140000D02*
X161270000Y-86140000D01*
X161270000Y-86140000D02*
X161210000Y-86080000D01*
X142870000Y-81700000D02*
X142190000Y-82380000D01*
X149560000Y-81700000D02*
X142870000Y-81700000D01*
X142190000Y-82380000D02*
X142190000Y-82440000D01*
G04 #@! TD*
M02*
