G04 #@! TF.GenerationSoftware,KiCad,Pcbnew,9.0.0*
G04 #@! TF.CreationDate,2026-06-23T01:52:46-03:00*
G04 #@! TF.ProjectId,PlacaSensor,506c6163-6153-4656-9e73-6f722e6b6963,rev?*
G04 #@! TF.SameCoordinates,Original*
G04 #@! TF.FileFunction,Soldermask,Bot*
G04 #@! TF.FilePolarity,Negative*
%FSLAX46Y46*%
G04 Gerber Fmt 4.6, Leading zero omitted, Abs format (unit mm)*
G04 Created by KiCad (PCBNEW 9.0.0) date 2026-06-23 01:52:46*
%MOMM*%
%LPD*%
G01*
G04 APERTURE LIST*
G04 Aperture macros list*
%AMRoundRect*
0 Rectangle with rounded corners*
0 $1 Rounding radius*
0 $2 $3 $4 $5 $6 $7 $8 $9 X,Y pos of 4 corners*
0 Add a 4 corners polygon primitive as box body*
4,1,4,$2,$3,$4,$5,$6,$7,$8,$9,$2,$3,0*
0 Add four circle primitives for the rounded corners*
1,1,$1+$1,$2,$3*
1,1,$1+$1,$4,$5*
1,1,$1+$1,$6,$7*
1,1,$1+$1,$8,$9*
0 Add four rect primitives between the rounded corners*
20,1,$1+$1,$2,$3,$4,$5,0*
20,1,$1+$1,$4,$5,$6,$7,0*
20,1,$1+$1,$6,$7,$8,$9,0*
20,1,$1+$1,$8,$9,$2,$3,0*%
%AMFreePoly0*
4,1,37,0.603843,0.796157,0.639018,0.796157,0.711114,0.766294,0.766294,0.711114,0.796157,0.639018,0.796157,0.603843,0.800000,0.600000,0.800000,-0.600000,0.796157,-0.603843,0.796157,-0.639018,0.766294,-0.711114,0.711114,-0.766294,0.639018,-0.796157,0.603843,-0.796157,0.600000,-0.800000,0.000000,-0.800000,0.000000,-0.796148,-0.078414,-0.796148,-0.232228,-0.765552,-0.377117,-0.705537,
-0.507515,-0.618408,-0.618408,-0.507515,-0.705537,-0.377117,-0.765552,-0.232228,-0.796148,-0.078414,-0.796148,0.078414,-0.765552,0.232228,-0.705537,0.377117,-0.618408,0.507515,-0.507515,0.618408,-0.377117,0.705537,-0.232228,0.765552,-0.078414,0.796148,0.000000,0.796148,0.000000,0.800000,0.600000,0.800000,0.603843,0.796157,0.603843,0.796157,$1*%
%AMFreePoly1*
4,1,37,0.000000,0.796148,0.078414,0.796148,0.232228,0.765552,0.377117,0.705537,0.507515,0.618408,0.618408,0.507515,0.705537,0.377117,0.765552,0.232228,0.796148,0.078414,0.796148,-0.078414,0.765552,-0.232228,0.705537,-0.377117,0.618408,-0.507515,0.507515,-0.618408,0.377117,-0.705537,0.232228,-0.765552,0.078414,-0.796148,0.000000,-0.796148,0.000000,-0.800000,-0.600000,-0.800000,
-0.603843,-0.796157,-0.639018,-0.796157,-0.711114,-0.766294,-0.766294,-0.711114,-0.796157,-0.639018,-0.796157,-0.603843,-0.800000,-0.600000,-0.800000,0.600000,-0.796157,0.603843,-0.796157,0.639018,-0.766294,0.711114,-0.711114,0.766294,-0.639018,0.796157,-0.603843,0.796157,-0.600000,0.800000,0.000000,0.800000,0.000000,0.796148,0.000000,0.796148,$1*%
%AMFreePoly2*
4,1,6,1.000000,0.000000,0.500000,-0.750000,-0.500000,-0.750000,-0.500000,0.750000,0.500000,0.750000,1.000000,0.000000,1.000000,0.000000,$1*%
%AMFreePoly3*
4,1,6,0.500000,-0.750000,-0.650000,-0.750000,-0.150000,0.000000,-0.650000,0.750000,0.500000,0.750000,0.500000,-0.750000,0.500000,-0.750000,$1*%
G04 Aperture macros list end*
%ADD10C,1.600000*%
%ADD11O,1.600000X1.600000*%
%ADD12RoundRect,0.250000X-0.550000X0.950000X-0.550000X-0.950000X0.550000X-0.950000X0.550000X0.950000X0*%
%ADD13O,1.600000X2.400000*%
%ADD14RoundRect,0.200000X0.600000X-0.600000X0.600000X0.600000X-0.600000X0.600000X-0.600000X-0.600000X0*%
%ADD15FreePoly0,90.000000*%
%ADD16FreePoly1,90.000000*%
%ADD17C,1.440000*%
%ADD18C,2.000000*%
%ADD19R,1.700000X1.700000*%
%ADD20O,1.700000X1.700000*%
%ADD21RoundRect,0.450000X-0.450000X-0.450000X0.450000X-0.450000X0.450000X0.450000X-0.450000X0.450000X0*%
%ADD22C,1.800000*%
%ADD23RoundRect,0.250000X0.350000X0.450000X-0.350000X0.450000X-0.350000X-0.450000X0.350000X-0.450000X0*%
%ADD24RoundRect,0.250000X0.450000X-0.350000X0.450000X0.350000X-0.450000X0.350000X-0.450000X-0.350000X0*%
%ADD25RoundRect,0.450000X0.450000X-0.450000X0.450000X0.450000X-0.450000X0.450000X-0.450000X-0.450000X0*%
%ADD26C,1.400000*%
%ADD27RoundRect,0.770000X-0.980000X-0.980000X0.980000X-0.980000X0.980000X0.980000X-0.980000X0.980000X0*%
%ADD28C,3.500000*%
%ADD29FreePoly2,270.000000*%
%ADD30FreePoly3,270.000000*%
%ADD31RoundRect,0.450000X-0.164711X0.614711X-0.614711X-0.164711X0.164711X-0.614711X0.614711X0.164711X0*%
%ADD32RoundRect,0.450000X0.614711X-0.164711X0.164711X0.614711X-0.614711X0.164711X-0.164711X-0.614711X0*%
%ADD33RoundRect,0.250000X-0.450000X0.350000X-0.450000X-0.350000X0.450000X-0.350000X0.450000X0.350000X0*%
%ADD34RoundRect,0.250000X-0.475000X0.337500X-0.475000X-0.337500X0.475000X-0.337500X0.475000X0.337500X0*%
%ADD35RoundRect,0.250000X-0.337500X-0.475000X0.337500X-0.475000X0.337500X0.475000X-0.337500X0.475000X0*%
G04 APERTURE END LIST*
G04 #@! TO.C,JP2*
G36*
X93520000Y-72900000D02*
G01*
X95020000Y-72900000D01*
X95020000Y-75350000D01*
X93520000Y-75350000D01*
X93520000Y-72900000D01*
G37*
G04 #@! TO.C,JP3*
G36*
X98460000Y-72955000D02*
G01*
X99960000Y-72955000D01*
X99960000Y-75405000D01*
X98460000Y-75405000D01*
X98460000Y-72955000D01*
G37*
G04 #@! TO.C,JP1*
G36*
X101210000Y-72985000D02*
G01*
X102710000Y-72985000D01*
X102710000Y-75435000D01*
X101210000Y-75435000D01*
X101210000Y-72985000D01*
G37*
G04 #@! TD*
D10*
G04 #@! TO.C,R11*
X184920000Y-85720000D03*
D11*
X179840000Y-85720000D03*
G04 #@! TD*
D12*
G04 #@! TO.C,U1*
X153170000Y-77230000D03*
D13*
X150630000Y-77230000D03*
X148090000Y-77230000D03*
X145550000Y-77230000D03*
X143010000Y-77230000D03*
X140470000Y-77230000D03*
X137930000Y-77230000D03*
X137930000Y-84850000D03*
X140470000Y-84850000D03*
X143010000Y-84850000D03*
X145550000Y-84850000D03*
X148090000Y-84850000D03*
X150630000Y-84850000D03*
X153170000Y-84850000D03*
G04 #@! TD*
D10*
G04 #@! TO.C,R12*
X184800000Y-81620000D03*
D11*
X179720000Y-81620000D03*
G04 #@! TD*
D14*
G04 #@! TO.C,A1*
X78912500Y-88720000D03*
D10*
X81452500Y-88720000D03*
D15*
X83992500Y-88720000D03*
D10*
X86532500Y-88720000D03*
X89072500Y-88720000D03*
X91612500Y-88720000D03*
X94152500Y-88720000D03*
D15*
X96692500Y-88720000D03*
D10*
X99232500Y-88720000D03*
X101772500Y-88720000D03*
X104312500Y-88720000D03*
X106852500Y-88720000D03*
D15*
X109392500Y-88720000D03*
D10*
X111932500Y-88720000D03*
X114472500Y-88720000D03*
X117012500Y-88720000D03*
X119552500Y-88720000D03*
D15*
X122092500Y-88720000D03*
D10*
X124632500Y-88720000D03*
X127172500Y-88720000D03*
X127172500Y-70940000D03*
X124632500Y-70940000D03*
D16*
X122092500Y-70940000D03*
D10*
X119552500Y-70940000D03*
X117012500Y-70940000D03*
X114472500Y-70940000D03*
X111932500Y-70940000D03*
D16*
X109392500Y-70940000D03*
D10*
X106852500Y-70940000D03*
X104312500Y-70940000D03*
X101772500Y-70940000D03*
X99232500Y-70940000D03*
D16*
X96692500Y-70940000D03*
D10*
X94152500Y-70940000D03*
X91612500Y-70940000D03*
X89072500Y-70940000D03*
X86532500Y-70940000D03*
D16*
X83992500Y-70940000D03*
D10*
X81452500Y-70940000D03*
X78912500Y-70940000D03*
G04 #@! TD*
D17*
G04 #@! TO.C,RV1*
X132760000Y-78250000D03*
D18*
X132760000Y-80790000D03*
X132760000Y-83330000D03*
G04 #@! TD*
D10*
G04 #@! TO.C,R14*
X172770000Y-74670000D03*
D11*
X167690000Y-74670000D03*
G04 #@! TD*
D10*
G04 #@! TO.C,R15*
X172340000Y-70800000D03*
D11*
X167260000Y-70800000D03*
G04 #@! TD*
D19*
G04 #@! TO.C,ServoControl1*
X104210000Y-97180000D03*
D20*
X106750000Y-97180000D03*
X109290000Y-97180000D03*
G04 #@! TD*
D10*
G04 #@! TO.C,C2*
X94150000Y-94540000D03*
X94150000Y-97040000D03*
G04 #@! TD*
D21*
G04 #@! TO.C,D1*
X113282000Y-96146000D03*
D22*
X115060000Y-97670000D03*
X116584000Y-96146000D03*
X118108000Y-97670000D03*
G04 #@! TD*
D10*
G04 #@! TO.C,R5*
X149120000Y-92790000D03*
D11*
X154200000Y-92790000D03*
G04 #@! TD*
D10*
G04 #@! TO.C,R4*
X149120000Y-88970000D03*
D11*
X154200000Y-88970000D03*
G04 #@! TD*
D10*
G04 #@! TO.C,R13*
X173010000Y-78580000D03*
D11*
X167930000Y-78580000D03*
G04 #@! TD*
D10*
G04 #@! TO.C,R6*
X149080000Y-96570000D03*
D11*
X154160000Y-96570000D03*
G04 #@! TD*
D10*
G04 #@! TO.C,R10*
X184900000Y-89690000D03*
D11*
X179820000Y-89690000D03*
G04 #@! TD*
D23*
G04 #@! TO.C,R26*
X139160000Y-80560000D03*
X137160000Y-80560000D03*
G04 #@! TD*
D24*
G04 #@! TO.C,R17*
X111620000Y-93710000D03*
X111620000Y-91710000D03*
G04 #@! TD*
D25*
G04 #@! TO.C,D5*
X175370000Y-87042000D03*
D22*
X173846000Y-85264000D03*
X175370000Y-83740000D03*
X173846000Y-82216000D03*
G04 #@! TD*
D24*
G04 #@! TO.C,R16*
X113580000Y-94330000D03*
X113580000Y-92330000D03*
G04 #@! TD*
D26*
G04 #@! TO.C,5V_IN1*
X77460000Y-109435000D03*
X88460000Y-109435000D03*
D27*
X85460000Y-99435000D03*
D28*
X80460000Y-99435000D03*
G04 #@! TD*
D29*
G04 #@! TO.C,JP2*
X94270000Y-73400000D03*
D30*
X94270000Y-74850000D03*
G04 #@! TD*
D31*
G04 #@! TO.C,D4*
X161862969Y-89894415D03*
D22*
X162293792Y-92196208D03*
X160211969Y-92754031D03*
X160769792Y-94835854D03*
G04 #@! TD*
D32*
G04 #@! TO.C,D6*
X163154792Y-78755824D03*
D22*
X160945969Y-77978031D03*
X161503792Y-75896208D03*
X159421969Y-75338385D03*
G04 #@! TD*
D29*
G04 #@! TO.C,JP3*
X99210000Y-73455000D03*
D30*
X99210000Y-74905000D03*
G04 #@! TD*
D33*
G04 #@! TO.C,R3*
X157750000Y-83650000D03*
X157750000Y-85650000D03*
G04 #@! TD*
D24*
G04 #@! TO.C,R20*
X120530000Y-97370000D03*
X120530000Y-95370000D03*
G04 #@! TD*
G04 #@! TO.C,R18*
X117490000Y-94430000D03*
X117490000Y-92430000D03*
G04 #@! TD*
D34*
G04 #@! TO.C,C3*
X145555000Y-80002500D03*
X145555000Y-82077500D03*
G04 #@! TD*
D29*
G04 #@! TO.C,JP1*
X101960000Y-73485000D03*
D30*
X101960000Y-74935000D03*
G04 #@! TD*
D10*
G04 #@! TO.C,R1*
X165510000Y-83140000D03*
X165510000Y-86140000D03*
G04 #@! TD*
D35*
G04 #@! TO.C,C4*
X104972500Y-75020000D03*
X107047500Y-75020000D03*
G04 #@! TD*
D24*
G04 #@! TO.C,R19*
X115520000Y-94420000D03*
X115520000Y-92420000D03*
G04 #@! TD*
D33*
G04 #@! TO.C,R2*
X155680000Y-83650000D03*
X155680000Y-85650000D03*
G04 #@! TD*
M02*
